<?xml version="1.0" encoding="UTF-8" standalone="no"?>
<svg
   version="1.0"
   width="1280pt"
   height="187pt"
   viewBox="0 0 1280 187"
   preserveAspectRatio="xMidYMid meet"
   id="svg8"
   sodipodi:docname="basform.svg"
   inkscape:version="1.1 (c68e22c387, 2021-05-23)"
   xmlns:inkscape="http://www.inkscape.org/namespaces/inkscape"
   xmlns:sodipodi="http://sodipodi.sourceforge.net/DTD/sodipodi-0.dtd"
   xmlns="http://www.w3.org/2000/svg"
   xmlns:svg="http://www.w3.org/2000/svg">
  <defs
     id="defs12">
    <linearGradient
       id="linearGradient110972"
       inkscape:swatch="solid">
      <stop
         style="stop-color:#7b66ff;stop-opacity:1;"
         offset="0"
         id="stop110970" />
    </linearGradient>
    <rect
       x="1025.4049"
       y="622.92841"
       width="20.224949"
       height="66.742332"
       id="rect37616" />
    <rect
       x="707.87323"
       y="428.76892"
       width="800.90796"
       height="135.50716"
       id="rect8694" />
    <rect
       x="707.87323"
       y="428.76892"
       width="800.90796"
       height="135.50716"
       id="rect8694-1" />
    <rect
       x="707.87323"
       y="428.76892"
       width="800.90796"
       height="135.50716"
       id="rect8694-1-1" />
    <rect
       x="707.87323"
       y="428.76892"
       width="800.90796"
       height="135.50716"
       id="rect8694-1-5" />
    <rect
       x="707.87323"
       y="428.76892"
       width="800.90796"
       height="135.50716"
       id="rect8694-2" />
    <rect
       x="1025.4049"
       y="622.92841"
       width="20.224949"
       height="66.742332"
       id="rect37616-8" />
  </defs>
  <sodipodi:namedview
     id="namedview10"
     pagecolor="#505050"
     bordercolor="#eeeeee"
     borderopacity="1"
     inkscape:pageshadow="0"
     inkscape:pageopacity="0"
     inkscape:pagecheckerboard="0"
     inkscape:document-units="pt"
     showgrid="false"
     inkscape:zoom="0.49443883"
     inkscape:cx="866.63905"
     inkscape:cy="181.01329"
     inkscape:window-width="1920"
     inkscape:window-height="1017"
     inkscape:window-x="1592"
     inkscape:window-y="-8"
     inkscape:window-maximized="1"
     inkscape:current-layer="svg8"
     height="187pt" />
  <metadata
     id="metadata2">
Created by potrace 1.15, written by Peter Selinger 2001-2017
</metadata>
  <path
     style="fill:none;stroke:#7b66ff;stroke-width:6.39761;stroke-linecap:butt;stroke-linejoin:miter;stroke-miterlimit:4;stroke-dasharray:none;stroke-opacity:1"
     d="m 2610.0737,13.57068 v 64.37464 l 128.9978,31.89865 124.912,-30.88829 v -66.5397"
     id="path4926-0-5-7-3-8" />
  <path
     style="fill:none;stroke:#7b66ff;stroke-width:6.39761;stroke-linecap:butt;stroke-linejoin:miter;stroke-miterlimit:4;stroke-dasharray:none;stroke-opacity:1"
     d="m 2863.9835,14.58105 v 64.37463 l 128.9979,31.89865 124.912,-30.88828 V 13.42634"
     id="path4926-0-5-7-3-8-6" />
  <path
     style="fill:none;stroke:#7b66ff;stroke-width:6.39761;stroke-linecap:butt;stroke-linejoin:miter;stroke-miterlimit:4;stroke-dasharray:none;stroke-opacity:1"
     d="m 3124.4593,13.77235 v 64.37464 l 128.9979,31.89864 124.912,-30.88827 v -66.5397"
     id="path4926-0-5-7-3-8-61-3-8-2" />
  <path
     style="fill:none;stroke:#7b66ff;stroke-width:6.39761;stroke-linecap:butt;stroke-linejoin:miter;stroke-miterlimit:4;stroke-dasharray:none;stroke-opacity:1"
     d="m 2356.1638,12.56032 v 64.37463 l 128.9979,31.89865 124.912,-30.88828 v -66.5397"
     id="path4926-0-5-7-3-0" />
  <path
     style="fill:none;stroke:#7b66ff;stroke-width:6.39761;stroke-linecap:butt;stroke-linejoin:miter;stroke-miterlimit:4;stroke-dasharray:none;stroke-opacity:1"
     d="m 2738.7792,192.47184 v -64.37463 l -128.9979,-31.89867 -124.9119,30.88832 v 66.53972"
     id="path4926-0-5-7-7-7-3" />
  <path
     style="fill:none;stroke:#7b66ff;stroke-width:6.39761;stroke-linecap:butt;stroke-linejoin:miter;stroke-miterlimit:4;stroke-dasharray:none;stroke-opacity:1"
     d="m 3500.5088,195.50288 v -64.37464 l -128.998,-31.89865 -124.9119,30.88831 v 66.53971"
     id="path4926-0-5-7-7-7-3-5" />
  <path
     style="fill:none;stroke:#7b66ff;stroke-width:6.39761;stroke-linecap:butt;stroke-linejoin:miter;stroke-miterlimit:4;stroke-dasharray:none;stroke-opacity:1"
     d="M 3246.5989,194.49253 V 130.1179 L 3117.601,98.21923 2992.6891,129.10755 v 66.53972"
     id="path4926-0-5-7-7-7-3-7" />
  <path
     style="fill:none;stroke:#7b66ff;stroke-width:6.39761;stroke-linecap:butt;stroke-linejoin:miter;stroke-miterlimit:4;stroke-dasharray:none;stroke-opacity:1"
     d="m 2992.6891,193.48219 v -64.37464 l -128.9979,-31.89866 -124.912,30.88832 v 66.53971"
     id="path4926-0-5-7-7-7-3-0" />
  <path
     style="fill:none;stroke:#7b66ff;stroke-width:6.39761;stroke-linecap:butt;stroke-linejoin:miter;stroke-miterlimit:4;stroke-dasharray:none;stroke-opacity:1"
     d="M 70.974732,3.46699 V 67.84162 L 199.97261,99.74028 324.88459,68.85199 V 2.3123"
     id="path4926-00" />
  <path
     style="fill:none;stroke:#7b66ff;stroke-width:6.39761;stroke-linecap:butt;stroke-linejoin:miter;stroke-miterlimit:4;stroke-dasharray:none;stroke-opacity:1"
     d="M -182.93509,2.45662 V 66.83126 L -53.937219,98.72991 70.974732,67.84162 V 1.30193"
     id="path4926-4-1" />
  <path
     style="fill:none;stroke:#7b66ff;stroke-width:6.39761;stroke-linecap:butt;stroke-linejoin:miter;stroke-miterlimit:4;stroke-dasharray:none;stroke-opacity:1"
     d="M -944.66467,-0.57448 V 63.80016 L -815.6667,95.69881 -690.75483,64.81053 V -1.72917"
     id="path4926-4-1-0" />
  <path
     style="fill:none;stroke:#7b66ff;stroke-width:6.39761;stroke-linecap:butt;stroke-linejoin:miter;stroke-miterlimit:4;stroke-dasharray:none;stroke-opacity:1"
     d="m -690.75483,0.43589 v 64.37464 l 128.99795,31.89864 124.91195,-30.88828 v -66.5397"
     id="path4926-4-1-6" />
  <path
     style="fill:none;stroke:#7b66ff;stroke-width:6.39761;stroke-linecap:butt;stroke-linejoin:miter;stroke-miterlimit:4;stroke-dasharray:none;stroke-opacity:1"
     d="m -436.84493,1.44625 v 64.37464 l 128.99788,31.89864 124.91196,-30.88827 V 0.29155"
     id="path4926-4-1-69" />
  <path
     style="fill:none;stroke:#7b66ff;stroke-width:6.39761;stroke-linecap:butt;stroke-linejoin:miter;stroke-miterlimit:4;stroke-dasharray:none;stroke-opacity:1"
     d="M 324.88459,4.47736 V 68.85199 L 453.88245,100.75064 578.7944,69.86236 V 3.32266"
     id="path4926-0-2" />
  <path
     style="fill:none;stroke:#7b66ff;stroke-width:6.39761;stroke-linecap:butt;stroke-linejoin:miter;stroke-miterlimit:4;stroke-dasharray:none;stroke-opacity:1"
     d="M 578.7944,5.48773 V 69.86236 L 707.79229,101.76101 832.70426,70.87273 V 4.33303"
     id="path4926-0-5-4" />
  <path
     style="fill:none;stroke:#7b66ff;stroke-width:6.39761;stroke-linecap:butt;stroke-linejoin:miter;stroke-miterlimit:4;stroke-dasharray:none;stroke-opacity:1"
     d="M 832.70426,6.4981 V 70.87273 L 961.70224,102.77138 1086.6142,71.8831 V 5.34339"
     id="path4926-0-5-7-6" />
  <path
     style="fill:none;stroke:#7b66ff;stroke-width:6.39761;stroke-linecap:butt;stroke-linejoin:miter;stroke-miterlimit:4;stroke-dasharray:none;stroke-opacity:1"
     d="m 2102.2539,11.54995 v 64.37463 l 128.9979,31.89865 124.912,-30.88828 v -66.5397"
     id="path4926-0-5-7-6-0" />
  <path
     style="fill:none;stroke:#7b66ff;stroke-width:6.39761;stroke-linecap:butt;stroke-linejoin:miter;stroke-miterlimit:4;stroke-dasharray:none;stroke-opacity:1"
     d="m 1848.344,10.53958 v 64.37463 l 128.9979,31.89865 124.912,-30.88828 V 9.38487"
     id="path4926-0-5-7-6-9" />
  <path
     style="fill:none;stroke:#7b66ff;stroke-width:6.39761;stroke-linecap:butt;stroke-linejoin:miter;stroke-miterlimit:4;stroke-dasharray:none;stroke-opacity:1"
     d="M 1086.6142,7.50847 V 71.8831 l 128.998,31.89865 124.9119,-30.88827 V 6.35376"
     id="path4926-0-5-7-6-4" />
  <path
     style="fill:none;stroke:#7b66ff;stroke-width:6.39761;stroke-linecap:butt;stroke-linejoin:miter;stroke-miterlimit:4;stroke-dasharray:none;stroke-opacity:1"
     d="m 1340.5241,8.51884 v 64.37464 l 128.998,31.89864 124.9119,-30.88827 V 7.36413"
     id="path4926-0-5-7-6-1" />
  <path
     style="fill:none;stroke:#7b66ff;stroke-width:6.39761;stroke-linecap:butt;stroke-linejoin:miter;stroke-miterlimit:4;stroke-dasharray:none;stroke-opacity:1"
     d="m 1594.434,9.5292 v 64.37465 l 128.998,31.89863 124.912,-30.88827 V 8.3745"
     id="path4926-0-5-7-6-7" />
  <path
     style="fill:none;stroke:#7b66ff;stroke-width:6.39761;stroke-linecap:butt;stroke-linejoin:miter;stroke-miterlimit:4;stroke-dasharray:none;stroke-opacity:1"
     d="M 453.59059,183.37867 V 119.00403 L 324.59271,87.10539 199.68075,117.99366 v 66.53971"
     id="path4926-7-3" />
  <path
     style="fill:none;stroke:#7b66ff;stroke-width:6.39761;stroke-linecap:butt;stroke-linejoin:miter;stroke-miterlimit:4;stroke-dasharray:none;stroke-opacity:1"
     d="M 199.68075,182.36829 V 117.99366 L 70.68288,86.09502 -54.229089,116.9833 v 66.5397"
     id="path4926-4-6-8" />
  <path
     style="fill:none;stroke:#7b66ff;stroke-width:6.39761;stroke-linecap:butt;stroke-linejoin:miter;stroke-miterlimit:4;stroke-dasharray:none;stroke-opacity:1"
     d="M -815.95858,178.32683 V 113.9522 l -128.99789,-31.89864 -124.91193,30.88827 v 66.53971"
     id="path4926-4-6-8-1" />
  <path
     style="fill:none;stroke:#7b66ff;stroke-width:6.39761;stroke-linecap:butt;stroke-linejoin:miter;stroke-miterlimit:4;stroke-dasharray:none;stroke-opacity:1"
     d="M -562.04875,179.33721 V 114.96256 L -691.04663,83.06393 -815.95858,113.9522 v 66.5397"
     id="path4926-4-6-8-5" />
  <path
     style="fill:none;stroke:#7b66ff;stroke-width:6.39761;stroke-linecap:butt;stroke-linejoin:miter;stroke-miterlimit:4;stroke-dasharray:none;stroke-opacity:1"
     d="M -308.13893,180.34757 V 115.97292 L -437.1368,84.07429 -562.04875,114.96256 v 66.53971"
     id="path4926-4-6-8-0" />
  <path
     style="fill:none;stroke:#7b66ff;stroke-width:6.39761;stroke-linecap:butt;stroke-linejoin:miter;stroke-miterlimit:4;stroke-dasharray:none;stroke-opacity:1"
     d="M -54.229089,181.35793 V 116.9833 L -183.22696,85.08465 -308.13893,115.97292 v 66.53972"
     id="path4926-4-6-8-2" />
  <path
     style="fill:none;stroke:#7b66ff;stroke-width:6.39761;stroke-linecap:butt;stroke-linejoin:miter;stroke-miterlimit:4;stroke-dasharray:none;stroke-opacity:1"
     d="M 707.50042,184.38902 V 120.01439 L 578.50253,88.11574 453.59058,119.00402 v 66.5397"
     id="path4926-0-8-9" />
  <path
     style="fill:none;stroke:#7b66ff;stroke-width:6.39761;stroke-linecap:butt;stroke-linejoin:miter;stroke-miterlimit:4;stroke-dasharray:none;stroke-opacity:1"
     d="m 961.41026,185.39937 v -64.37462 l -128.99783,-31.89863 -124.912,30.88827 v 66.53972"
     id="path4926-0-5-6-3" />
  <path
     style="fill:none;stroke:#7b66ff;stroke-width:6.39761;stroke-linecap:butt;stroke-linejoin:miter;stroke-miterlimit:4;stroke-dasharray:none;stroke-opacity:1"
     d="m 1215.3202,186.40974 v -64.37463 l -128.998,-31.89866 -124.91194,30.8883 v 66.53972"
     id="path4926-0-5-7-7-9" />
  <path
     style="fill:none;stroke:#7b66ff;stroke-width:6.39761;stroke-linecap:butt;stroke-linejoin:miter;stroke-miterlimit:4;stroke-dasharray:none;stroke-opacity:1"
     d="m 2230.9596,190.45114 v -64.37463 l -128.998,-31.89865 -124.9119,30.8883 v 66.53972"
     id="path4926-0-5-7-7-9-6" />
  <path
     style="fill:none;stroke:#7b66ff;stroke-width:6.39761;stroke-linecap:butt;stroke-linejoin:miter;stroke-miterlimit:4;stroke-dasharray:none;stroke-opacity:1"
     d="M 2484.8694,191.4615 V 127.08686 L 2355.8715,95.1882 2230.9596,126.07651 v 66.53972"
     id="path4926-0-5-7-7-9-6-7" />
  <path
     style="fill:none;stroke:#7b66ff;stroke-width:6.39761;stroke-linecap:butt;stroke-linejoin:miter;stroke-miterlimit:4;stroke-dasharray:none;stroke-opacity:1"
     d="M 1723.1399,188.43044 V 124.0558 l -128.998,-31.89864 -124.9119,30.8883 v 66.53971"
     id="path4926-0-5-7-7-9-63" />
  <path
     style="fill:none;stroke:#7b66ff;stroke-width:6.39761;stroke-linecap:butt;stroke-linejoin:miter;stroke-miterlimit:4;stroke-dasharray:none;stroke-opacity:1"
     d="M 1469.23,187.42008 V 123.04546 L 1340.2321,91.1468 1215.3202,122.03511 v 66.53972"
     id="path4926-0-5-7-7-9-9" />
  <path
     style="fill:none;stroke:#7b66ff;stroke-width:6.39761;stroke-linecap:butt;stroke-linejoin:miter;stroke-miterlimit:4;stroke-dasharray:none;stroke-opacity:1"
     d="M 1977.0497,189.44079 V 125.06616 L 1848.0518,93.1675 1723.1399,124.0558 v 66.53973"
     id="path4926-0-5-7-7-9-3" />
  <text
     xml:space="preserve"
     transform="matrix(0.57720864,0,0,0.50240587,132.11739,-272.43452)"
     id="text37614"
     style="font-style:normal;font-weight:normal;font-size:40px;line-height:1.25;font-family:sans-serif;white-space:pre;shape-inside:url(#rect37616);fill:#000000;fill-opacity:1;stroke:none" />
  <path
     style="fill:none;fill-opacity:1;stroke:#f5f5f5;stroke-width:6.39761;stroke-linecap:butt;stroke-linejoin:miter;stroke-miterlimit:4;stroke-dasharray:none;stroke-opacity:1"
     d="m 2099.254,8.549996 v 64.37464 l 128.9978,31.898654 124.912,-30.888294 v -66.5397"
     id="path4926-0-5-7-3-8-8" />
  <path
     style="fill:none;fill-opacity:1;stroke:#f5f5f5;stroke-width:6.39761;stroke-linecap:butt;stroke-linejoin:miter;stroke-miterlimit:4;stroke-dasharray:none;stroke-opacity:1"
     d="m 2353.1638,9.560366 v 64.37463 l 128.9979,31.898654 124.912,-30.888284 V 8.405656"
     id="path4926-0-5-7-3-8-6-6" />
  <path
     style="fill:none;fill-opacity:1;stroke:#f5f5f5;stroke-width:6.39761;stroke-linecap:butt;stroke-linejoin:miter;stroke-miterlimit:4;stroke-dasharray:none;stroke-opacity:1"
     d="m 2613.6396,8.751666 v 64.37464 l 128.9979,31.898644 124.912,-30.888274 v -66.5397"
     id="path4926-0-5-7-3-8-61-3-8-2-9" />
  <path
     style="fill:none;fill-opacity:1;stroke:#f5f5f5;stroke-width:6.39761;stroke-linecap:butt;stroke-linejoin:miter;stroke-miterlimit:4;stroke-dasharray:none;stroke-opacity:1"
     d="m 1845.3441,7.539636 v 64.37463 l 128.9979,31.898654 124.912,-30.888284 v -66.5397"
     id="path4926-0-5-7-3-0-7" />
  <path
     style="fill:none;fill-opacity:1;stroke:#f5f5f5;stroke-width:6.39761;stroke-linecap:butt;stroke-linejoin:miter;stroke-miterlimit:4;stroke-dasharray:none;stroke-opacity:1"
     d="M 2227.9595,187.45116 V 123.07653 L 2098.9616,91.17786 1974.0497,122.06618 V 188.6059"
     id="path4926-0-5-7-7-7-3-55" />
  <path
     style="fill:none;fill-opacity:1;stroke:#f5f5f5;stroke-width:6.39761;stroke-linecap:butt;stroke-linejoin:miter;stroke-miterlimit:4;stroke-dasharray:none;stroke-opacity:1"
     d="m 2989.6891,190.4822 v -64.37464 l -128.998,-31.89865 -124.9119,30.88831 v 66.53971"
     id="path4926-0-5-7-7-7-3-5-8" />
  <path
     style="fill:none;fill-opacity:1;stroke:#f5f5f5;stroke-width:6.39761;stroke-linecap:butt;stroke-linejoin:miter;stroke-miterlimit:4;stroke-dasharray:none;stroke-opacity:1"
     d="m 2735.7792,189.47185 v -64.37463 l -128.9979,-31.89867 -124.9119,30.88832 v 66.53972"
     id="path4926-0-5-7-7-7-3-7-6" />
  <path
     style="fill:none;fill-opacity:1;stroke:#f5f5f5;stroke-width:6.39761;stroke-linecap:butt;stroke-linejoin:miter;stroke-miterlimit:4;stroke-dasharray:none;stroke-opacity:1"
     d="m 2481.8694,188.46151 v -64.37464 l -128.9979,-31.89866 -124.912,30.88832 v 66.53971"
     id="path4926-0-5-7-7-7-3-0-7" />
  <path
     style="fill:none;fill-opacity:1;stroke:#f5f5f5;stroke-width:6.39761;stroke-linecap:butt;stroke-linejoin:miter;stroke-miterlimit:4;stroke-dasharray:none;stroke-opacity:1"
     d="m -439.84494,-1.553694 v 64.37463 L -310.84706,94.7196 -185.93508,63.831306 v -66.53969"
     id="path4926-00-3" />
  <path
     style="fill:none;fill-opacity:1;stroke:#f5f5f5;stroke-width:6.39761;stroke-linecap:butt;stroke-linejoin:miter;stroke-miterlimit:4;stroke-dasharray:none;stroke-opacity:1"
     d="m -693.75476,-2.564064 v 64.37464 l 128.99787,31.898654 124.91195,-30.888294 v -66.53969"
     id="path4926-4-1-8" />
  <path
     style="fill:none;fill-opacity:1;stroke:#f5f5f5;stroke-width:6.39761;stroke-linecap:butt;stroke-linejoin:miter;stroke-miterlimit:4;stroke-dasharray:none;stroke-opacity:1"
     d="m -1455.4844,-5.595164 v 64.37464 l 128.998,31.898654 124.9118,-30.888284 v -66.5397"
     id="path4926-4-1-0-9" />
  <path
     style="fill:none;fill-opacity:1;stroke:#f5f5f5;stroke-width:6.39761;stroke-linecap:butt;stroke-linejoin:miter;stroke-miterlimit:4;stroke-dasharray:none;stroke-opacity:1"
     d="m -1201.5746,-4.584794 v 64.37464 l 128.998,31.898644 124.912,-30.888284 v -66.5397"
     id="path4926-4-1-6-0" />
  <path
     style="fill:none;fill-opacity:1;stroke:#f5f5f5;stroke-width:6.39761;stroke-linecap:butt;stroke-linejoin:miter;stroke-miterlimit:4;stroke-dasharray:none;stroke-opacity:1"
     d="m -947.6646,-3.574434 v 64.37464 l 128.99788,31.898644 124.91196,-30.888274 v -66.53971"
     id="path4926-4-1-69-8" />
  <path
     style="fill:none;fill-opacity:1;stroke:#f5f5f5;stroke-width:6.39761;stroke-linecap:butt;stroke-linejoin:miter;stroke-miterlimit:4;stroke-dasharray:none;stroke-opacity:1"
     d="m -185.93508,-0.543324 v 64.37463 L -56.93722,95.72996 67.97473,64.841676 v -66.5397"
     id="path4926-0-2-6" />
  <path
     style="fill:none;fill-opacity:1;stroke:#f5f5f5;stroke-width:6.39761;stroke-linecap:butt;stroke-linejoin:miter;stroke-miterlimit:4;stroke-dasharray:none;stroke-opacity:1"
     d="m 67.97473,0.467046 v 64.37463 L 196.97262,96.74033 321.88459,65.852046 v -66.5397"
     id="path4926-0-5-4-3" />
  <path
     style="fill:none;fill-opacity:1;stroke:#f5f5f5;stroke-width:6.39761;stroke-linecap:butt;stroke-linejoin:miter;stroke-miterlimit:4;stroke-dasharray:none;stroke-opacity:1"
     d="m 321.88459,1.477416 v 64.37463 L 450.88257,97.7507 575.79453,66.862416 V 0.322706"
     id="path4926-0-5-7-6-2" />
  <path
     style="fill:none;fill-opacity:1;stroke:#f5f5f5;stroke-width:6.39761;stroke-linecap:butt;stroke-linejoin:miter;stroke-miterlimit:4;stroke-dasharray:none;stroke-opacity:1"
     d="m 1591.4342,6.529266 v 64.37463 l 128.9979,31.898654 124.912,-30.888284 v -66.5397"
     id="path4926-0-5-7-6-0-5" />
  <path
     style="fill:none;fill-opacity:1;stroke:#f5f5f5;stroke-width:6.39761;stroke-linecap:butt;stroke-linejoin:miter;stroke-miterlimit:4;stroke-dasharray:none;stroke-opacity:1"
     d="m 1337.5243,5.518896 v 64.37463 l 128.9979,31.898654 124.912,-30.888284 V 4.364186"
     id="path4926-0-5-7-6-9-3" />
  <path
     style="fill:none;fill-opacity:1;stroke:#f5f5f5;stroke-width:6.39761;stroke-linecap:butt;stroke-linejoin:miter;stroke-miterlimit:4;stroke-dasharray:none;stroke-opacity:1"
     d="m 575.79453,2.487786 v 64.37463 l 128.998,31.898654 124.9119,-30.888274 V 1.333076"
     id="path4926-0-5-7-6-4-5" />
  <path
     style="fill:none;fill-opacity:1;stroke:#f5f5f5;stroke-width:6.39761;stroke-linecap:butt;stroke-linejoin:miter;stroke-miterlimit:4;stroke-dasharray:none;stroke-opacity:1"
     d="m 829.70443,3.498156 v 64.37464 L 958.70247,99.77144 1083.6143,68.883166 V 2.343446"
     id="path4926-0-5-7-6-1-0" />
  <path
     style="fill:none;fill-opacity:1;stroke:#f5f5f5;stroke-width:6.39761;stroke-linecap:butt;stroke-linejoin:miter;stroke-miterlimit:4;stroke-dasharray:none;stroke-opacity:1"
     d="m 1083.6143,4.508516 v 64.37465 l 128.998,31.898634 124.912,-30.888274 V 3.353816"
     id="path4926-0-5-7-6-7-3" />
  <path
     style="fill:none;fill-opacity:1;stroke:#f5f5f5;stroke-width:6.39761;stroke-linecap:butt;stroke-linejoin:miter;stroke-miterlimit:4;stroke-dasharray:none;stroke-opacity:1"
     d="m -57.22908,178.35799 v -64.37464 l -128.99788,-31.89864 -124.91196,30.88827 v 66.53971"
     id="path4926-7-3-9" />
  <path
     style="fill:none;fill-opacity:1;stroke:#f5f5f5;stroke-width:6.39761;stroke-linecap:butt;stroke-linejoin:miter;stroke-miterlimit:4;stroke-dasharray:none;stroke-opacity:1"
     d="m -311.13892,177.34761 v -64.37463 l -128.99787,-31.89864 -124.91197,30.88828 v 66.5397"
     id="path4926-4-6-8-6" />
  <path
     style="fill:none;fill-opacity:1;stroke:#f5f5f5;stroke-width:6.39761;stroke-linecap:butt;stroke-linejoin:miter;stroke-miterlimit:4;stroke-dasharray:none;stroke-opacity:1"
     d="m -1326.7783,173.30615 v -64.37463 l -128.9979,-31.898644 -124.9119,30.888274 v 66.53971"
     id="path4926-4-6-8-1-6" />
  <path
     style="fill:none;fill-opacity:1;stroke:#f5f5f5;stroke-width:6.39761;stroke-linecap:butt;stroke-linejoin:miter;stroke-miterlimit:4;stroke-dasharray:none;stroke-opacity:1"
     d="m -1072.8685,174.31653 v -64.37465 l -128.9979,-31.898634 -124.9119,30.888274 v 66.5397"
     id="path4926-4-6-8-5-0" />
  <path
     style="fill:none;fill-opacity:1;stroke:#f5f5f5;stroke-width:6.39761;stroke-linecap:butt;stroke-linejoin:miter;stroke-miterlimit:4;stroke-dasharray:none;stroke-opacity:1"
     d="M -818.9586,175.32689 V 110.95224 L -947.95647,79.053606 -1072.8685,109.94188 v 66.53971"
     id="path4926-4-6-8-0-7" />
  <path
     style="fill:none;fill-opacity:1;stroke:#f5f5f5;stroke-width:6.39761;stroke-linecap:butt;stroke-linejoin:miter;stroke-miterlimit:4;stroke-dasharray:none;stroke-opacity:1"
     d="M -565.04876,176.33725 V 111.96262 L -694.04663,80.063966 -818.9586,110.95224 v 66.53972"
     id="path4926-4-6-8-2-3" />
  <path
     style="fill:none;fill-opacity:1;stroke:#f5f5f5;stroke-width:6.39761;stroke-linecap:butt;stroke-linejoin:miter;stroke-miterlimit:4;stroke-dasharray:none;stroke-opacity:1"
     d="M 196.68075,179.36834 V 114.99371 L 67.68286,83.09506 -57.22909,113.98334 v 66.5397"
     id="path4926-0-8-9-3" />
  <path
     style="fill:none;fill-opacity:1;stroke:#f5f5f5;stroke-width:6.39761;stroke-linecap:butt;stroke-linejoin:miter;stroke-miterlimit:4;stroke-dasharray:none;stroke-opacity:1"
     d="m 450.59059,180.37869 v -64.37462 l -128.99783,-31.89863 -124.912,30.88827 v 66.53972"
     id="path4926-0-5-6-3-8" />
  <path
     style="fill:none;fill-opacity:1;stroke:#f5f5f5;stroke-width:6.39761;stroke-linecap:butt;stroke-linejoin:miter;stroke-miterlimit:4;stroke-dasharray:none;stroke-opacity:1"
     d="m 704.50053,181.38906 v -64.37463 l -128.998,-31.89866 -124.91194,30.8883 v 66.53972"
     id="path4926-0-5-7-7-9-0" />
  <path
     style="fill:none;fill-opacity:1;stroke:#f5f5f5;stroke-width:6.39761;stroke-linecap:butt;stroke-linejoin:miter;stroke-miterlimit:4;stroke-dasharray:none;stroke-opacity:1"
     d="M 1720.1399,185.43046 V 121.05583 L 1591.1419,89.15718 1466.23,120.04548 V 186.5852"
     id="path4926-0-5-7-7-9-6-70" />
  <path
     style="fill:none;fill-opacity:1;stroke:#f5f5f5;stroke-width:6.39761;stroke-linecap:butt;stroke-linejoin:miter;stroke-miterlimit:4;stroke-dasharray:none;stroke-opacity:1"
     d="m 1974.0497,186.44082 v -64.37464 l -128.9979,-31.89866 -124.9119,30.88831 v 66.53972"
     id="path4926-0-5-7-7-9-6-7-4" />
  <path
     style="fill:none;fill-opacity:1;stroke:#f5f5f5;stroke-width:6.39761;stroke-linecap:butt;stroke-linejoin:miter;stroke-miterlimit:4;stroke-dasharray:none;stroke-opacity:1"
     d="m 1212.3202,183.40976 v -64.37464 l -128.998,-31.89864 -124.91183,30.8883 v 66.53971"
     id="path4926-0-5-7-7-9-63-0" />
  <path
     style="fill:none;fill-opacity:1;stroke:#f5f5f5;stroke-width:6.39761;stroke-linecap:butt;stroke-linejoin:miter;stroke-miterlimit:4;stroke-dasharray:none;stroke-opacity:1"
     d="M 958.41037,182.3994 V 118.02478 L 829.41243,86.12612 704.50053,117.01443 v 66.53972"
     id="path4926-0-5-7-7-9-9-0" />
  <path
     style="fill:none;fill-opacity:1;stroke:#f5f5f5;stroke-width:6.39761;stroke-linecap:butt;stroke-linejoin:miter;stroke-miterlimit:4;stroke-dasharray:none;stroke-opacity:1"
     d="m 1466.23,184.42011 v -64.37463 l -128.9979,-31.89866 -124.9119,30.8883 v 66.53973"
     id="path4926-0-5-7-7-9-3-5" />
  <text
     xml:space="preserve"
     transform="matrix(0.57720864,0,0,0.50240587,-378.70228,-277.4552)"
     id="text37614-9"
     style="font-style:normal;font-weight:normal;font-size:40px;line-height:1.25;font-family:sans-serif;white-space:pre;shape-inside:url(#rect37616-8);fill:none;fill-opacity:1;stroke:#f5f5f5;stroke-opacity:1" />
</svg>
