<?xml version="1.0" encoding="UTF-8" standalone="no"?>
<svg
   version="1.0"
   width="1280pt"
   height="187pt"
   viewBox="0 0 1280 187"
   preserveAspectRatio="xMidYMid meet"
   id="svg8"
   sodipodi:docname="hautform.svg"
   inkscape:version="1.1 (c68e22c387, 2021-05-23)"
   xmlns:inkscape="http://www.inkscape.org/namespaces/inkscape"
   xmlns:sodipodi="http://sodipodi.sourceforge.net/DTD/sodipodi-0.dtd"
   xmlns="http://www.w3.org/2000/svg"
   xmlns:svg="http://www.w3.org/2000/svg">
  <defs
     id="defs12">
    <linearGradient
       id="linearGradient110972"
       inkscape:swatch="solid">
      <stop
         style="stop-color:#7b66ff;stop-opacity:1;"
         offset="0"
         id="stop110970" />
    </linearGradient>
    <rect
       x="1025.4049"
       y="622.92841"
       width="20.224949"
       height="66.742332"
       id="rect37616" />
    <rect
       x="707.87323"
       y="428.76892"
       width="800.90796"
       height="135.50716"
       id="rect8694" />
    <rect
       x="707.87323"
       y="428.76892"
       width="800.90796"
       height="135.50716"
       id="rect8694-1" />
    <rect
       x="707.87323"
       y="428.76892"
       width="800.90796"
       height="135.50716"
       id="rect8694-1-1" />
    <rect
       x="707.87323"
       y="428.76892"
       width="800.90796"
       height="135.50716"
       id="rect8694-1-5" />
    <rect
       x="707.87323"
       y="428.76892"
       width="800.90796"
       height="135.50716"
       id="rect8694-2" />
    <rect
       x="1025.4049"
       y="622.92841"
       width="20.224949"
       height="66.742332"
       id="rect37616-8" />
  </defs>
  <sodipodi:namedview
     id="namedview10"
     pagecolor="#505050"
     bordercolor="#eeeeee"
     borderopacity="1"
     inkscape:pageshadow="0"
     inkscape:pageopacity="0"
     inkscape:pagecheckerboard="0"
     inkscape:document-units="pt"
     showgrid="false"
     inkscape:zoom="0.49443883"
     inkscape:cx="862.59406"
     inkscape:cy="504.61247"
     inkscape:window-width="1920"
     inkscape:window-height="1017"
     inkscape:window-x="1592"
     inkscape:window-y="-8"
     inkscape:window-maximized="1"
     inkscape:current-layer="svg8"
     height="250pt" />
  <metadata
     id="metadata2">
Created by potrace 1.15, written by Peter Selinger 2001-2017
</metadata>
  <path
     style="fill:none;stroke:#7b66ff;stroke-width:6.39761;stroke-linecap:butt;stroke-linejoin:miter;stroke-miterlimit:4;stroke-dasharray:none;stroke-opacity:1"
     d="M 195.15708,3.700815 V 68.07545 L 324.15495,99.97409 449.0669,69.08582 V 2.546112"
     id="path4926" />
  <path
     style="fill:none;stroke:#7b66ff;stroke-width:6.39761;stroke-linecap:butt;stroke-linejoin:miter;stroke-miterlimit:4;stroke-dasharray:none;stroke-opacity:1"
     d="M -58.752759,2.690445 V 67.06508 L 70.24511,98.96372 195.15708,68.07545 V 1.535745"
     id="path4926-4" />
  <path
     style="fill:none;stroke:#7b66ff;stroke-width:6.39761;stroke-linecap:butt;stroke-linejoin:miter;stroke-miterlimit:4;stroke-dasharray:none;stroke-opacity:1"
     d="M -1074.3922,-1.351036 V 63.02359 l 128.99793,31.89866 124.91198,-30.88829 V -2.505738"
     id="path4926-4-2" />
  <path
     style="fill:none;stroke:#7b66ff;stroke-width:6.39761;stroke-linecap:butt;stroke-linejoin:miter;stroke-miterlimit:4;stroke-dasharray:none;stroke-opacity:1"
     d="M -820.48229,-0.340666 V 64.03396 L -691.4844,95.93261 -566.57243,65.04434 V -1.495368"
     id="path4926-4-10" />
  <path
     style="fill:none;stroke:#7b66ff;stroke-width:6.39761;stroke-linecap:butt;stroke-linejoin:miter;stroke-miterlimit:4;stroke-dasharray:none;stroke-opacity:1"
     d="M -566.57243,0.669704 V 65.04434 l 128.99788,31.89864 124.91196,-30.88827 V -0.484998"
     id="path4926-4-8" />
  <path
     style="fill:none;stroke:#7b66ff;stroke-width:6.39761;stroke-linecap:butt;stroke-linejoin:miter;stroke-miterlimit:4;stroke-dasharray:none;stroke-opacity:1"
     d="M -312.66259,1.680074 V 66.05471 L -183.66471,97.95335 -58.752759,67.06508 V 0.525371"
     id="path4926-4-0" />
  <path
     style="fill:none;stroke:#7b66ff;stroke-width:6.39761;stroke-linecap:butt;stroke-linejoin:miter;stroke-miterlimit:4;stroke-dasharray:none;stroke-opacity:1"
     d="M 449.0669,4.711183 V 69.08582 L 578.06478,100.98447 702.97674,70.09618 V 3.556478"
     id="path4926-0" />
  <path
     style="fill:none;stroke:#7b66ff;stroke-width:6.39761;stroke-linecap:butt;stroke-linejoin:miter;stroke-miterlimit:4;stroke-dasharray:none;stroke-opacity:1"
     d="M 702.97674,5.721552 V 70.09618 L 831.97461,101.99483 956.88657,71.10655 V 4.566847"
     id="path4926-0-5" />
  <path
     style="fill:none;stroke:#7b66ff;stroke-width:6.39761;stroke-linecap:butt;stroke-linejoin:miter;stroke-miterlimit:4;stroke-dasharray:none;stroke-opacity:1"
     d="M 956.88657,6.731922 V 71.10655 l 128.99793,31.89865 124.912,-30.88828 V 5.577216"
     id="path4926-0-5-7" />
  <path
     style="fill:none;stroke:#7b66ff;stroke-width:6.39761;stroke-linecap:butt;stroke-linejoin:miter;stroke-miterlimit:4;stroke-dasharray:none;stroke-opacity:1"
     d="M 1210.7965,7.742285 V 72.11692 l 128.9978,31.89865 124.912,-30.88828 V 6.587579"
     id="path4926-0-5-7-2" />
  <path
     style="fill:none;stroke:#7b66ff;stroke-width:6.39761;stroke-linecap:butt;stroke-linejoin:miter;stroke-miterlimit:4;stroke-dasharray:none;stroke-opacity:1"
     d="M 2226.4359,11.783743 V 76.15838 l 128.9978,31.89865 124.912,-30.88829 v -66.5397"
     id="path4926-0-5-7-3" />
  <path
     style="fill:none;stroke:#7b66ff;stroke-width:6.39761;stroke-linecap:butt;stroke-linejoin:miter;stroke-miterlimit:4;stroke-dasharray:none;stroke-opacity:1"
     d="M 2480.3457,12.794108 V 77.16874 l 128.9978,31.89865 124.912,-30.88829 V 11.639406"
     id="path4926-0-5-7-3-1" />
  <path
     style="fill:none;stroke:#7b66ff;stroke-width:6.39761;stroke-linecap:butt;stroke-linejoin:miter;stroke-miterlimit:4;stroke-dasharray:none;stroke-opacity:1"
     d="M 2734.2555,13.804474 V 78.1791 l 128.9979,31.89865 124.912,-30.88827 V 12.649771"
     id="path4926-0-5-7-3-8-61" />
  <path
     style="fill:none;stroke:#7b66ff;stroke-width:6.39761;stroke-linecap:butt;stroke-linejoin:miter;stroke-miterlimit:4;stroke-dasharray:none;stroke-opacity:1"
     d="M 2988.1654,14.814836 V 79.18948 l 128.9978,31.89864 124.912,-30.88828 V 13.660133"
     id="path4926-0-5-7-3-8-61-3" />
  <path
     style="fill:none;stroke:#7b66ff;stroke-width:6.39761;stroke-linecap:butt;stroke-linejoin:miter;stroke-miterlimit:4;stroke-dasharray:none;stroke-opacity:1"
     d="M 3242.0752,15.825203 V 80.19984 l 128.9979,31.89864 124.912,-30.88828 V 14.6705"
     id="path4926-0-5-7-3-8-61-3-8" />
  <path
     style="fill:none;stroke:#7b66ff;stroke-width:6.39761;stroke-linecap:butt;stroke-linejoin:miter;stroke-miterlimit:4;stroke-dasharray:none;stroke-opacity:1"
     d="M 1972.526,10.773381 V 75.14801 l 128.9979,31.89865 124.912,-30.88828 V 9.618676"
     id="path4926-0-5-7-67" />
  <path
     style="fill:none;stroke:#7b66ff;stroke-width:6.39761;stroke-linecap:butt;stroke-linejoin:miter;stroke-miterlimit:4;stroke-dasharray:none;stroke-opacity:1"
     d="M 1464.7063,8.752651 V 73.12729 l 128.9979,31.89864 124.912,-30.88828 V 7.597946"
     id="path4926-0-5-7-8" />
  <path
     style="fill:none;stroke:#7b66ff;stroke-width:6.39761;stroke-linecap:butt;stroke-linejoin:miter;stroke-miterlimit:4;stroke-dasharray:none;stroke-opacity:1"
     d="M 1718.6162,9.763016 V 74.13765 l 128.9978,31.89864 124.912,-30.88828 V 8.608311"
     id="path4926-0-5-7-1" />
  <path
     style="fill:none;stroke:#7b66ff;stroke-width:6.39761;stroke-linecap:butt;stroke-linejoin:miter;stroke-miterlimit:4;stroke-dasharray:none;stroke-opacity:1"
     d="M 577.77292,183.61249 V 119.23786 L 448.77504,87.33921 323.86308,118.22748 v 66.53971"
     id="path4926-7" />
  <path
     style="fill:none;stroke:#7b66ff;stroke-width:6.39761;stroke-linecap:butt;stroke-linejoin:miter;stroke-miterlimit:4;stroke-dasharray:none;stroke-opacity:1"
     d="M 323.86308,182.60212 V 118.22748 L 194.8652,86.32884 69.953248,117.21711 v 66.53971"
     id="path4926-4-6" />
  <path
     style="fill:none;stroke:#7b66ff;stroke-width:6.39761;stroke-linecap:butt;stroke-linejoin:miter;stroke-miterlimit:4;stroke-dasharray:none;stroke-opacity:1"
     d="M 69.953248,181.59175 V 117.21711 L -59.044629,85.31847 -183.95659,116.20673 v 66.53972"
     id="path4926-4-6-4" />
  <path
     style="fill:none;stroke:#7b66ff;stroke-width:6.39761;stroke-linecap:butt;stroke-linejoin:miter;stroke-miterlimit:4;stroke-dasharray:none;stroke-opacity:1"
     d="M -183.95659,180.58137 V 116.20673 L -312.95447,84.3081 -437.86643,115.19636 v 66.53971"
     id="path4926-4-6-4-3" />
  <path
     style="fill:none;stroke:#7b66ff;stroke-width:6.39761;stroke-linecap:butt;stroke-linejoin:miter;stroke-miterlimit:4;stroke-dasharray:none;stroke-opacity:1"
     d="M -437.86643,179.571 V 115.19636 L -566.8643,83.29773 -691.77619,114.18599 v 66.53971"
     id="path4926-4-6-4-3-8" />
  <path
     style="fill:none;stroke:#7b66ff;stroke-width:6.39761;stroke-linecap:butt;stroke-linejoin:miter;stroke-miterlimit:4;stroke-dasharray:none;stroke-opacity:1"
     d="m -691.77619,178.56062 v -64.37463 l -128.99789,-31.89864 -124.91189,30.88826 v 66.53972"
     id="path4926-4-6-4-3-8-8" />
  <path
     style="fill:none;stroke:#7b66ff;stroke-width:6.39761;stroke-linecap:butt;stroke-linejoin:miter;stroke-miterlimit:4;stroke-dasharray:none;stroke-opacity:1"
     d="M 831.68274,184.62285 V 120.24822 L 702.68486,88.34957 577.77291,119.23785 v 66.5397"
     id="path4926-0-8" />
  <path
     style="fill:none;stroke:#7b66ff;stroke-width:6.39761;stroke-linecap:butt;stroke-linejoin:miter;stroke-miterlimit:4;stroke-dasharray:none;stroke-opacity:1"
     d="M 1085.5925,185.6332 V 121.25858 L 956.59478,89.35993 831.68275,120.24821 v 66.53972"
     id="path4926-0-5-6" />
  <path
     style="fill:none;stroke:#7b66ff;stroke-width:6.39761;stroke-linecap:butt;stroke-linejoin:miter;stroke-miterlimit:4;stroke-dasharray:none;stroke-opacity:1"
     d="m 1339.5024,186.64358 v -64.37463 l -128.9979,-31.89866 -124.912,30.88832 v 66.53971"
     id="path4926-0-5-7-7" />
  <path
     style="fill:none;stroke:#7b66ff;stroke-width:6.39761;stroke-linecap:butt;stroke-linejoin:miter;stroke-miterlimit:4;stroke-dasharray:none;stroke-opacity:1"
     d="m 2355.1419,190.68496 v -64.37462 l -128.998,-31.89867 -124.912,30.88832 v 66.53971"
     id="path4926-0-5-7-7-7" />
  <path
     style="fill:none;stroke:#7b66ff;stroke-width:6.39761;stroke-linecap:butt;stroke-linejoin:miter;stroke-miterlimit:4;stroke-dasharray:none;stroke-opacity:1"
     d="m 3370.7812,194.72634 v -64.37462 l -128.9979,-31.89867 -124.9119,30.88832 v 66.53971"
     id="path4926-0-5-7-7-7-34" />
  <path
     style="fill:none;stroke:#7b66ff;stroke-width:6.39761;stroke-linecap:butt;stroke-linejoin:miter;stroke-miterlimit:4;stroke-dasharray:none;stroke-opacity:1"
     d="m 3116.8714,193.716 v -64.37463 l -128.9979,-31.89866 -124.9119,30.88832 v 66.53971"
     id="path4926-0-5-7-7-7-7" />
  <path
     style="fill:none;stroke:#7b66ff;stroke-width:6.39761;stroke-linecap:butt;stroke-linejoin:miter;stroke-miterlimit:4;stroke-dasharray:none;stroke-opacity:1"
     d="m 2862.9616,192.70565 v -64.37462 l -128.998,-31.89867 -124.9119,30.88832 v 66.53972"
     id="path4926-0-5-7-7-7-5" />
  <path
     style="fill:none;stroke:#7b66ff;stroke-width:6.39761;stroke-linecap:butt;stroke-linejoin:miter;stroke-miterlimit:4;stroke-dasharray:none;stroke-opacity:1"
     d="m 2609.0517,191.69531 v -64.37463 l -128.9979,-31.89866 -124.9119,30.88832 v 66.53971"
     id="path4926-0-5-7-7-7-6" />
  <path
     style="fill:none;stroke:#7b66ff;stroke-width:6.39761;stroke-linecap:butt;stroke-linejoin:miter;stroke-miterlimit:4;stroke-dasharray:none;stroke-opacity:1"
     d="M 2101.2319,189.67461 V 125.29999 L 1972.234,93.40132 1847.3221,124.28964 v 66.53971"
     id="path4926-0-5-7-7-95" />
  <path
     style="fill:none;stroke:#7b66ff;stroke-width:6.39761;stroke-linecap:butt;stroke-linejoin:miter;stroke-miterlimit:4;stroke-dasharray:none;stroke-opacity:1"
     d="M 1847.3221,188.66426 V 124.28964 L 1718.3242,92.39098 1593.4123,123.2793 v 66.53971"
     id="path4926-0-5-7-7-5" />
  <path
     style="fill:none;stroke:#7b66ff;stroke-width:6.39761;stroke-linecap:butt;stroke-linejoin:miter;stroke-miterlimit:4;stroke-dasharray:none;stroke-opacity:1"
     d="M 1593.4123,187.65392 V 123.2793 l -128.998,-31.89867 -124.9119,30.88832 v 66.53971"
     id="path4926-0-5-7-7-8" />
  <text
     xml:space="preserve"
     transform="matrix(0.57720864,0,0,0.50240587,132.11739,-27.934522)"
     id="text37614"
     style="font-style:normal;font-weight:normal;font-size:40px;line-height:1.25;font-family:sans-serif;white-space:pre;shape-inside:url(#rect37616);fill:#000000;fill-opacity:1;stroke:#7b66ff;stroke-opacity:1" />
  <path
     style="fill:none;stroke:#f5f5f1;stroke-width:6.39761;stroke-linecap:butt;stroke-linejoin:miter;stroke-miterlimit:4;stroke-dasharray:none;stroke-opacity:1"
     d="M -569.5724,-2.33027 V 62.04436 L -440.57453,93.943 -315.66258,63.05473 V -3.48498"
     id="path4926-49" />
  <path
     style="fill:none;stroke:#f5f5f1;stroke-width:6.39761;stroke-linecap:butt;stroke-linejoin:miter;stroke-miterlimit:4;stroke-dasharray:none;stroke-opacity:1"
     d="M -823.48224,-3.34064 V 61.03399 L -694.48437,92.93263 -569.5724,62.04436 V -4.49534"
     id="path4926-4-4" />
  <path
     style="fill:none;stroke:#f5f5f1;stroke-width:6.39761;stroke-linecap:butt;stroke-linejoin:miter;stroke-miterlimit:4;stroke-dasharray:none;stroke-opacity:1"
     d="M -1839.1217,-7.38213 V 56.9925 l 128.9979,31.89866 124.912,-30.88829 v -66.5397"
     id="path4926-4-2-8" />
  <path
     style="fill:none;stroke:#f5f5f1;stroke-width:6.39761;stroke-linecap:butt;stroke-linejoin:miter;stroke-miterlimit:4;stroke-dasharray:none;stroke-opacity:1"
     d="m -1585.2118,-6.37176 v 64.37463 l 128.9979,31.89865 124.912,-30.88827 V -7.52646"
     id="path4926-4-10-8" />
  <path
     style="fill:none;stroke:#f5f5f1;stroke-width:6.39761;stroke-linecap:butt;stroke-linejoin:miter;stroke-miterlimit:4;stroke-dasharray:none;stroke-opacity:1"
     d="m -1331.3019,-5.36139 v 64.37464 l 128.9978,31.89864 124.912,-30.88827 V -6.51609"
     id="path4926-4-8-7" />
  <path
     style="fill:none;stroke:#f5f5f1;stroke-width:6.39761;stroke-linecap:butt;stroke-linejoin:miter;stroke-miterlimit:4;stroke-dasharray:none;stroke-opacity:1"
     d="m -1077.3921,-4.35102 v 64.37464 l 128.99793,31.89864 124.91193,-30.88827 V -5.50572"
     id="path4926-4-0-8" />
  <path
     style="fill:none;stroke:#f5f5f1;stroke-width:6.39761;stroke-linecap:butt;stroke-linejoin:miter;stroke-miterlimit:4;stroke-dasharray:none;stroke-opacity:1"
     d="M -315.66258,-1.31991 V 63.05473 L -186.6647,94.95338 -61.75274,64.06509 v -66.5397"
     id="path4926-0-3" />
  <path
     style="fill:none;stroke:#f5f5f1;stroke-width:6.39761;stroke-linecap:butt;stroke-linejoin:miter;stroke-miterlimit:4;stroke-dasharray:none;stroke-opacity:1"
     d="M -61.75274,-0.30954 V 64.06509 L 67.24513,95.96374 192.15709,65.07546 v -66.5397"
     id="path4926-0-5-4" />
  <path
     style="fill:none;stroke:#f5f5f1;stroke-width:6.39761;stroke-linecap:butt;stroke-linejoin:miter;stroke-miterlimit:4;stroke-dasharray:none;stroke-opacity:1"
     d="m 192.15709,0.70083 v 64.37463 l 128.99793,31.89865 124.912,-30.88828 v -66.5397"
     id="path4926-0-5-7-5" />
  <path
     style="fill:none;stroke:#f5f5f1;stroke-width:6.39761;stroke-linecap:butt;stroke-linejoin:miter;stroke-miterlimit:4;stroke-dasharray:none;stroke-opacity:1"
     d="m 446.06702,1.7112 v 64.37463 l 128.9978,31.89865 124.912,-30.88828 V 0.55649"
     id="path4926-0-5-7-2-0" />
  <path
     style="fill:none;stroke:#f5f5f1;stroke-width:6.39761;stroke-linecap:butt;stroke-linejoin:miter;stroke-miterlimit:4;stroke-dasharray:none;stroke-opacity:1"
     d="m 1461.7064,5.75265 v 64.37464 l 128.9978,31.89865 124.912,-30.88829 V 4.59795"
     id="path4926-0-5-7-3-6" />
  <path
     style="fill:none;stroke:#f5f5f1;stroke-width:6.39761;stroke-linecap:butt;stroke-linejoin:miter;stroke-miterlimit:4;stroke-dasharray:none;stroke-opacity:1"
     d="M 1715.6162,6.76302 V 71.13765 L 1844.614,103.0363 1969.526,72.14801 V 5.60832"
     id="path4926-0-5-7-3-1-5" />
  <path
     style="fill:none;stroke:#f5f5f1;stroke-width:6.39761;stroke-linecap:butt;stroke-linejoin:miter;stroke-miterlimit:4;stroke-dasharray:none;stroke-opacity:1"
     d="m 1969.526,7.77338 v 64.37463 l 128.9979,31.89865 124.912,-30.88827 V 6.61868"
     id="path4926-0-5-7-3-8-61-1" />
  <path
     style="fill:none;stroke:#f5f5f1;stroke-width:6.39761;stroke-linecap:butt;stroke-linejoin:miter;stroke-miterlimit:4;stroke-dasharray:none;stroke-opacity:1"
     d="m 2223.4359,8.78375 v 64.37464 l 128.9978,31.89864 124.912,-30.88828 V 7.62904"
     id="path4926-0-5-7-3-8-61-3-2" />
  <path
     style="fill:none;stroke:#f5f5f1;stroke-width:6.39761;stroke-linecap:butt;stroke-linejoin:miter;stroke-miterlimit:4;stroke-dasharray:none;stroke-opacity:1"
     d="m 2477.3457,9.79411 v 64.37464 l 128.9979,31.89864 124.912,-30.88828 V 8.63941"
     id="path4926-0-5-7-3-8-61-3-8-7" />
  <path
     style="fill:none;stroke:#f5f5f1;stroke-width:6.39761;stroke-linecap:butt;stroke-linejoin:miter;stroke-miterlimit:4;stroke-dasharray:none;stroke-opacity:1"
     d="m 1207.7965,4.74229 v 64.37463 l 128.9979,31.89865 124.912,-30.88828 V 3.58759"
     id="path4926-0-5-7-67-2" />
  <path
     style="fill:none;stroke:#f5f5f1;stroke-width:6.39761;stroke-linecap:butt;stroke-linejoin:miter;stroke-miterlimit:4;stroke-dasharray:none;stroke-opacity:1"
     d="M 699.97682,2.72156 V 67.0962 l 128.9979,31.89864 124.912,-30.88828 V 1.56686"
     id="path4926-0-5-7-8-9" />
  <path
     style="fill:none;stroke:#f5f5f1;stroke-width:6.39761;stroke-linecap:butt;stroke-linejoin:miter;stroke-miterlimit:4;stroke-dasharray:none;stroke-opacity:1"
     d="m 953.88672,3.73193 v 64.37463 l 128.99778,31.89864 124.912,-30.88828 V 2.57722"
     id="path4926-0-5-7-1-6" />
  <path
     style="fill:none;stroke:#f5f5f1;stroke-width:6.39761;stroke-linecap:butt;stroke-linejoin:miter;stroke-miterlimit:4;stroke-dasharray:none;stroke-opacity:1"
     d="M -186.95656,177.5814 V 113.20677 L -315.95444,81.30812 -440.8664,112.19639 v 66.53971"
     id="path4926-7-0" />
  <path
     style="fill:none;stroke:#f5f5f1;stroke-width:6.39761;stroke-linecap:butt;stroke-linejoin:miter;stroke-miterlimit:4;stroke-dasharray:none;stroke-opacity:1"
     d="m -440.8664,176.57103 v -64.37464 l -128.99788,-31.89864 -124.91195,30.88827 v 66.53971"
     id="path4926-4-6-1" />
  <path
     style="fill:none;stroke:#f5f5f1;stroke-width:6.39761;stroke-linecap:butt;stroke-linejoin:miter;stroke-miterlimit:4;stroke-dasharray:none;stroke-opacity:1"
     d="m -694.77623,175.56066 v -64.37464 l -128.99788,-31.89864 -124.91196,30.88826 v 66.53972"
     id="path4926-4-6-4-1" />
  <path
     style="fill:none;stroke:#f5f5f1;stroke-width:6.39761;stroke-linecap:butt;stroke-linejoin:miter;stroke-miterlimit:4;stroke-dasharray:none;stroke-opacity:1"
     d="m -948.68607,174.55028 v -64.37464 l -128.99793,-31.89863 -124.9119,30.88826 v 66.53971"
     id="path4926-4-6-4-3-4" />
  <path
     style="fill:none;stroke:#f5f5f1;stroke-width:6.39761;stroke-linecap:butt;stroke-linejoin:miter;stroke-miterlimit:4;stroke-dasharray:none;stroke-opacity:1"
     d="m -1202.5959,173.53991 v -64.37464 l -128.9979,-31.89863 -124.9119,30.88826 v 66.53971"
     id="path4926-4-6-4-3-8-1" />
  <path
     style="fill:none;stroke:#f5f5f1;stroke-width:6.39761;stroke-linecap:butt;stroke-linejoin:miter;stroke-miterlimit:4;stroke-dasharray:none;stroke-opacity:1"
     d="M -1456.5057,172.52953 V 108.1549 l -128.9979,-31.89864 -124.9119,30.88826 v 66.53972"
     id="path4926-4-6-4-3-8-8-6" />
  <path
     style="fill:none;stroke:#f5f5f1;stroke-width:6.39761;stroke-linecap:butt;stroke-linejoin:miter;stroke-miterlimit:4;stroke-dasharray:none;stroke-opacity:1"
     d="M 66.95326,178.59176 V 114.21713 L -62.04462,82.31848 -186.95657,113.20676 v 66.5397"
     id="path4926-0-8-9" />
  <path
     style="fill:none;stroke:#f5f5f1;stroke-width:6.39761;stroke-linecap:butt;stroke-linejoin:miter;stroke-miterlimit:4;stroke-dasharray:none;stroke-opacity:1"
     d="M 320.86302,179.60211 V 115.22749 L 191.8653,83.32884 66.95327,114.21712 v 66.53972"
     id="path4926-0-5-6-7" />
  <path
     style="fill:none;stroke:#f5f5f1;stroke-width:6.39761;stroke-linecap:butt;stroke-linejoin:miter;stroke-miterlimit:4;stroke-dasharray:none;stroke-opacity:1"
     d="m 574.77292,180.61249 v -64.37463 l -128.9979,-31.89866 -124.912,30.88832 v 66.53971"
     id="path4926-0-5-7-7-57" />
  <path
     style="fill:none;stroke:#f5f5f1;stroke-width:6.39761;stroke-linecap:butt;stroke-linejoin:miter;stroke-miterlimit:4;stroke-dasharray:none;stroke-opacity:1"
     d="m 1590.4124,184.65387 v -64.37462 l -128.998,-31.89867 -124.912,30.88832 v 66.53971"
     id="path4926-0-5-7-7-7-54" />
  <path
     style="fill:none;stroke:#f5f5f1;stroke-width:6.39761;stroke-linecap:butt;stroke-linejoin:miter;stroke-miterlimit:4;stroke-dasharray:none;stroke-opacity:1"
     d="m 2606.0517,188.69525 v -64.37462 l -128.9979,-31.89867 -124.9119,30.88832 v 66.53971"
     id="path4926-0-5-7-7-7-34-5" />
  <path
     style="fill:none;stroke:#f5f5f1;stroke-width:6.39761;stroke-linecap:butt;stroke-linejoin:miter;stroke-miterlimit:4;stroke-dasharray:none;stroke-opacity:1"
     d="M 2352.1419,187.68491 V 123.31028 L 2223.144,91.41162 2098.2321,122.29994 v 66.53971"
     id="path4926-0-5-7-7-7-7-4" />
  <path
     style="fill:none;stroke:#f5f5f1;stroke-width:6.39761;stroke-linecap:butt;stroke-linejoin:miter;stroke-miterlimit:4;stroke-dasharray:none;stroke-opacity:1"
     d="m 2098.2321,186.67456 v -64.37462 l -128.998,-31.89867 -124.9119,30.88832 v 66.53972"
     id="path4926-0-5-7-7-7-5-8" />
  <path
     style="fill:none;stroke:#f5f5f1;stroke-width:6.39761;stroke-linecap:butt;stroke-linejoin:miter;stroke-miterlimit:4;stroke-dasharray:none;stroke-opacity:1"
     d="m 1844.3222,185.66422 v -64.37463 l -128.9979,-31.89866 -124.9119,30.88832 v 66.53971"
     id="path4926-0-5-7-7-7-6-2" />
  <path
     style="fill:none;stroke:#f5f5f1;stroke-width:6.39761;stroke-linecap:butt;stroke-linejoin:miter;stroke-miterlimit:4;stroke-dasharray:none;stroke-opacity:1"
     d="M 1336.5024,183.64352 V 119.2689 l -128.9979,-31.89867 -124.9119,30.88832 v 66.53971"
     id="path4926-0-5-7-7-95-8" />
  <path
     style="fill:none;stroke:#f5f5f1;stroke-width:6.39761;stroke-linecap:butt;stroke-linejoin:miter;stroke-miterlimit:4;stroke-dasharray:none;stroke-opacity:1"
     d="M 1082.5926,182.63317 V 118.25855 L 953.59472,86.35989 828.68282,117.24821 v 66.53971"
     id="path4926-0-5-7-7-5-9" />
  <path
     style="fill:none;stroke:#f5f5f1;stroke-width:6.39761;stroke-linecap:butt;stroke-linejoin:miter;stroke-miterlimit:4;stroke-dasharray:none;stroke-opacity:1"
     d="m 828.68282,181.62283 v -64.37462 l -128.998,-31.89867 -124.9119,30.88832 v 66.53971"
     id="path4926-0-5-7-7-8-2" />
  <text
     xml:space="preserve"
     transform="matrix(0.57720864,0,0,0.50240587,-632.61209,-33.96561)"
     id="text37614-8"
     style="font-style:normal;font-weight:normal;font-size:40px;line-height:1.25;font-family:sans-serif;white-space:pre;shape-inside:url(#rect37616-8);fill:#000000;fill-opacity:1;stroke:#f5f5f1;stroke-opacity:1" />
</svg>
