<?xml version="1.0" encoding="UTF-8" standalone="no"?>
<svg
   version="1.0"
   width="750pt"
   height="985pt"
   viewBox="0 0 750 985"
   preserveAspectRatio="xMidYMid meet"
   id="svg8"
   sodipodi:docname="hexa.svg"
   inkscape:version="1.1 (c68e22c387, 2021-05-23)"
   xmlns:inkscape="http://www.inkscape.org/namespaces/inkscape"
   xmlns:sodipodi="http://sodipodi.sourceforge.net/DTD/sodipodi-0.dtd"
   xmlns="http://www.w3.org/2000/svg"
   xmlns:svg="http://www.w3.org/2000/svg">
  <defs
     id="defs12">
    <linearGradient
       id="linearGradient7910"
       inkscape:swatch="solid">
      <stop
         style="stop-color:#ffffff;stop-opacity:1;"
         offset="0"
         id="stop7908" />
    </linearGradient>
  </defs>
  <sodipodi:namedview
     id="namedview10"
     pagecolor="#505050"
     bordercolor="#eeeeee"
     borderopacity="1"
     inkscape:pageshadow="0"
     inkscape:pageopacity="0"
     inkscape:pagecheckerboard="0"
     inkscape:document-units="pt"
     showgrid="false"
     inkscape:zoom="0.5"
     inkscape:cx="565"
     inkscape:cy="659"
     inkscape:window-width="1920"
     inkscape:window-height="1017"
     inkscape:window-x="1592"
     inkscape:window-y="-8"
     inkscape:window-maximized="1"
     inkscape:current-layer="svg8"
     width="1279pt" />
  <metadata
     id="metadata2">
Created by potrace 1.15, written by Peter Selinger 2001-2017
</metadata>
  <g
     transform="matrix(0,-0.08935409,-0.07797136,0,968.23161,1104.5689)"
     fill="#000000"
     stroke="none"
     id="g6"
     style="fill:none">
    <path
       d="M 2516,7269 C 1352,5251 1179,4946 1187,4927 c 6,-12 303,-528 660,-1147 357,-619 955,-1655 1329,-2302 L 3855,300 h 2685 2686 l 619,1072 c 1721,2982 2029,3515 2042,3544 l 15,31 -434,754 c -238,415 -841,1459 -1338,2321 L 9225,9590 H 6540 3855 Z"
       id="path4"
       style="fill:none" />
  </g>
  <path
     style="fill:none;fill-opacity:1;stroke:#7b66ff;stroke-width:19.6419;stroke-miterlimit:4;stroke-dasharray:none;stroke-opacity:1"
     d="M 187.78608,135.12118 C 284.47596,71.392033 366.08385,17.654008 369.137,15.703408 L 374.68805,12.156749 557.27779,131.57107 739.86736,250.98539 739.56278,492.16688 739.2581,733.34836 557.67716,853.02061 376.09614,972.69278 194.34585,853.06825 12.59557,733.44357 12.290915,492.21805 11.98627,250.9925 Z"
     id="path2320" />
</svg>
